"Here we are and yet another exciting episode of Money Talks is at hand. We kick off this episode with a patriotic bit in celebration of the 4th of July. It involves three smoking hot girls, three tiny bikinis and a whole lot of body paint. After that we revisit an old classic, the wonderful pussy pump competition. The girl with the puffiest pussy wins. Then we are serving up some delicious desert Money Talks style of course. We ask one hot little blonde to come back with us and let us cover her in thick delicious honey and then cover her naked body in in sprinkles. This girl has a bangin' ass body. Then for our main bit we got a really good one. We put together a little something called the penis chair, I guess you could say its a chair, only with five legs, and the 5th leg happens to be a guys cock. So we threw it in the back of a van, and cruised the streets to see who would be down to sit on it and spin."
 
http://www.fapstash.com/show.php/12027_thumbs.jpg.html

One WMV file
============
Format : Windows Media 
File size : 791 MiB 
Duration : 1h 16mn 
Overall bit rate mode : Constant 
Overall bit rate : 1 454 Kbps 
Maximum Overall bit rate : 1 463 Kbps 
Movie name : RealityKings.com 
Performer : delila 
Encoded date : UTC 2009-07-06 19:39:57.314 
Comment : dong chair rising 
Rating : Adults Only 

Video  ID : 2 
Format : VC-1 
Format profile : MP@ML 
Codec ID : WMV3 
Codec ID/Info : Windows Media Video 9 
Codec ID/Hint : WMV3 
Description of the codec : Windows Media Video 9 - Professional 
Duration : 1h 16mn 
Bit rate mode : Constant 
Bit rate : 1 400 Kbps 
Width : 720 pixels 
Height : 480 pixels 
Display aspect ratio : 1.500 
Frame rate : 29.970 fps 
Standard : NTSC 
Resolution : 24 bits 
Scan type : Progressive 
Bits/(Pixel*Frame) : 0.135 
Stream size : 761 MiB (96%) 

Audio  ID : 1 
Format : WMA2 
Format profile : L2 
Codec ID : 161 
Codec ID/Info : Windows Media Audio 2 
Description of the codec : Windows Media Audio 9.1 - 48 kbps, 44 kHz, stereo 1-pass CBR 
Duration : 1h 16mn 
Bit rate mode : Constant 
Bit rate : 48.0 Kbps 
Channel(s) : 2 channels 
Sampling rate : 44.1 KHz 
Resolution : 16 bits 
Stream size : 26.1 MiB (3%) 
